<svg width="493" height="350" viewBox="0 0 493 350" fill="none" xmlns="http://www.w3.org/2000/svg">
<path d="M5.29901 24.6364V8.27273H6.3473V24.6364H5.29901ZM8.57812 13.348C8.50994 12.7429 8.22869 12.2741 7.73438 11.9418C7.24006 11.6051 6.6179 11.4368 5.8679 11.4368C5.33097 11.4368 4.86648 11.522 4.47443 11.6925C4.08239 11.8587 3.7777 12.0888 3.56037 12.3828C3.3473 12.6726 3.24077 13.0028 3.24077 13.3736C3.24077 13.6847 3.31321 13.9531 3.4581 14.179C3.60724 14.4048 3.80114 14.5945 4.03977 14.7479C4.28267 14.897 4.54261 15.0227 4.8196 15.125C5.09659 15.223 5.36293 15.304 5.61861 15.3679L6.89702 15.7003C7.31463 15.8026 7.7429 15.9411 8.18182 16.1158C8.62074 16.2905 9.0277 16.5206 9.4027 16.8061C9.7777 17.0916 10.0803 17.4453 10.3104 17.8672C10.5447 18.2891 10.6619 18.794 10.6619 19.3821C10.6619 20.1236 10.4702 20.782 10.0866 21.3572C9.70739 21.9325 9.15554 22.3864 8.43111 22.7188C7.71094 23.0511 6.83949 23.2173 5.81676 23.2173C4.83665 23.2173 3.98864 23.0618 3.27273 22.7507C2.55682 22.4396 1.99645 21.9986 1.59162 21.4276C1.18679 20.8523 0.963068 20.1705 0.920455 19.3821H2.90199C2.94034 19.8551 3.09375 20.2493 3.36222 20.5646C3.63494 20.8757 3.98224 21.108 4.40412 21.2614C4.83026 21.4105 5.29688 21.4851 5.80398 21.4851C6.36222 21.4851 6.85867 21.3977 7.29332 21.223C7.73224 21.044 8.07742 20.7969 8.32884 20.4815C8.58026 20.1619 8.70597 19.7891 8.70597 19.3629C8.70597 18.9751 8.59517 18.6577 8.37358 18.4105C8.15625 18.1634 7.86009 17.9588 7.48509 17.7969C7.11435 17.6349 6.6946 17.4922 6.22585 17.3686L4.67898 16.9467C3.63068 16.6612 2.79972 16.2415 2.18608 15.6875C1.5767 15.1335 1.27202 14.4006 1.27202 13.4886C1.27202 12.7344 1.47656 12.076 1.88565 11.5135C2.29474 10.951 2.84872 10.5142 3.54759 10.2031C4.24645 9.88778 5.0348 9.73011 5.91264 9.73011C6.79901 9.73011 7.58097 9.88565 8.25852 10.1967C8.94034 10.5078 9.47727 10.9361 9.86932 11.4815C10.2614 12.0227 10.4659 12.6449 10.483 13.348H8.57812ZM17.1642 23.179C16.3631 23.179 15.6429 23.0256 15.0037 22.7188C14.3688 22.4077 13.8617 21.9815 13.4824 21.4403C13.1032 20.8991 12.9007 20.2812 12.8752 19.5866H14.7928C14.8397 20.1491 15.089 20.6115 15.5407 20.9737C15.9924 21.3359 16.5336 21.517 17.1642 21.517C17.6671 21.517 18.1124 21.402 18.5002 21.1719C18.8922 20.9375 19.199 20.6158 19.4206 20.2067C19.6465 19.7976 19.7594 19.331 19.7594 18.8068C19.7594 18.2741 19.6444 17.799 19.4142 17.3814C19.1841 16.9638 18.8667 16.6357 18.4618 16.397C18.0613 16.1584 17.601 16.0369 17.0811 16.0327C16.6848 16.0327 16.2864 16.1009 15.8858 16.2372C15.4853 16.3736 15.1614 16.5526 14.9142 16.7741L13.1053 16.5057L13.8404 9.90909H21.0378V11.603H15.4831L15.0676 15.2656H15.1444C15.4 15.0185 15.7388 14.8118 16.1607 14.6456C16.5868 14.4794 17.0428 14.3963 17.5286 14.3963C18.3255 14.3963 19.035 14.5859 19.6571 14.9652C20.2836 15.3445 20.7757 15.8622 21.1337 16.5185C21.4959 17.1705 21.6749 17.9205 21.6706 18.7685C21.6749 19.6165 21.4831 20.3729 21.0953 21.0376C20.7118 21.7024 20.1792 22.2266 19.4973 22.6101C18.8198 22.9893 18.0421 23.179 17.1642 23.179ZM25.7887 19.6697L25.7759 17.3366H26.1083L30.0202 13.1818H32.3086L27.8469 17.9119H27.5465L25.7887 19.6697ZM24.0309 23V9.90909H25.9421V23H24.0309ZM30.2312 23L26.7156 18.3338L28.0323 16.9979L32.5771 23H30.2312Z" fill="#4D4D4D"/>
<path d="M5.29901 81.1867V64.823H6.3473V81.1867H5.29901ZM8.57812 69.8983C8.50994 69.2932 8.22869 68.8244 7.73438 68.4921C7.24006 68.1554 6.6179 67.9871 5.8679 67.9871C5.33097 67.9871 4.86648 68.0723 4.47443 68.2428C4.08239 68.409 3.7777 68.6391 3.56037 68.9331C3.3473 69.2229 3.24077 69.5531 3.24077 69.9239C3.24077 70.235 3.31321 70.5034 3.4581 70.7293C3.60724 70.9551 3.80114 71.1448 4.03977 71.2982C4.28267 71.4473 4.54261 71.573 4.8196 71.6753C5.09659 71.7733 5.36293 71.8543 5.61861 71.9182L6.89702 72.2506C7.31463 72.3528 7.7429 72.4913 8.18182 72.6661C8.62074 72.8408 9.0277 73.0709 9.4027 73.3564C9.7777 73.6419 10.0803 73.9956 10.3104 74.4175C10.5447 74.8394 10.6619 75.3443 10.6619 75.9324C10.6619 76.6739 10.4702 77.3323 10.0866 77.9075C9.70739 78.4828 9.15554 78.9367 8.43111 79.269C7.71094 79.6014 6.83949 79.7676 5.81676 79.7676C4.83665 79.7676 3.98864 79.6121 3.27273 79.301C2.55682 78.9899 1.99645 78.5489 1.59162 77.9778C1.18679 77.4026 0.963068 76.7207 0.920455 75.9324H2.90199C2.94034 76.4054 3.09375 76.7996 3.36222 77.1149C3.63494 77.426 3.98224 77.6582 4.40412 77.8117C4.83026 77.9608 5.29688 78.0354 5.80398 78.0354C6.36222 78.0354 6.85867 77.948 7.29332 77.7733C7.73224 77.5943 8.07742 77.3472 8.32884 77.0318C8.58026 76.7122 8.70597 76.3394 8.70597 75.9132C8.70597 75.5254 8.59517 75.208 8.37358 74.9608C8.15625 74.7136 7.86009 74.5091 7.48509 74.3472C7.11435 74.1852 6.6946 74.0425 6.22585 73.9189L4.67898 73.497C3.63068 73.2115 2.79972 72.7918 2.18608 72.2378C1.5767 71.6838 1.27202 70.9509 1.27202 70.0389C1.27202 69.2847 1.47656 68.6263 1.88565 68.0638C2.29474 67.5013 2.84872 67.0645 3.54759 66.7534C4.24645 66.4381 5.0348 66.2804 5.91264 66.2804C6.79901 66.2804 7.58097 66.4359 8.25852 66.747C8.94034 67.0581 9.47727 67.4864 9.86932 68.0318C10.2614 68.573 10.4659 69.1952 10.483 69.8983H8.57812ZM12.5684 76.9935V75.3955L18.2253 66.4594H19.4846V68.8117H18.6855L14.6394 75.2165V75.3188H22.3929V76.9935H12.5684ZM18.775 79.5503V76.5077L18.7878 75.779V66.4594H20.6607V79.5503H18.775ZM26.4039 76.22L26.3912 73.8869H26.7235L30.6355 69.7321H32.9238L28.4622 74.4622H28.1618L26.4039 76.22ZM24.6461 79.5503V66.4594H26.5574V79.5503H24.6461ZM30.8464 79.5503L27.3308 74.8841L28.6476 73.5482L33.1923 79.5503H30.8464Z" fill="#4D4D4D"/>
<path d="M5.29901 136.287V119.923H6.3473V136.287H5.29901ZM8.57812 124.998C8.50994 124.393 8.22869 123.925 7.73438 123.592C7.24006 123.256 6.6179 123.087 5.8679 123.087C5.33097 123.087 4.86648 123.172 4.47443 123.343C4.08239 123.509 3.7777 123.739 3.56037 124.033C3.3473 124.323 3.24077 124.653 3.24077 125.024C3.24077 125.335 3.31321 125.604 3.4581 125.829C3.60724 126.055 3.80114 126.245 4.03977 126.398C4.28267 126.547 4.54261 126.673 4.8196 126.775C5.09659 126.873 5.36293 126.954 5.61861 127.018L6.89702 127.351C7.31463 127.453 7.7429 127.591 8.18182 127.766C8.62074 127.941 9.0277 128.171 9.4027 128.456C9.7777 128.742 10.0803 129.096 10.3104 129.518C10.5447 129.939 10.6619 130.444 10.6619 131.032C10.6619 131.774 10.4702 132.432 10.0866 133.008C9.70739 133.583 9.15554 134.037 8.43111 134.369C7.71094 134.702 6.83949 134.868 5.81676 134.868C4.83665 134.868 3.98864 134.712 3.27273 134.401C2.55682 134.09 1.99645 133.649 1.59162 133.078C1.18679 132.503 0.963068 131.821 0.920455 131.032H2.90199C2.94034 131.506 3.09375 131.9 3.36222 132.215C3.63494 132.526 3.98224 132.758 4.40412 132.912C4.83026 133.061 5.29688 133.135 5.80398 133.135C6.36222 133.135 6.85867 133.048 7.29332 132.873C7.73224 132.694 8.07742 132.447 8.32884 132.132C8.58026 131.812 8.70597 131.439 8.70597 131.013C8.70597 130.626 8.59517 130.308 8.37358 130.061C8.15625 129.814 7.86009 129.609 7.48509 129.447C7.11435 129.285 6.6946 129.143 6.22585 129.019L4.67898 128.597C3.63068 128.312 2.79972 127.892 2.18608 127.338C1.5767 126.784 1.27202 126.051 1.27202 125.139C1.27202 124.385 1.47656 123.726 1.88565 123.164C2.29474 122.601 2.84872 122.165 3.54759 121.854C4.24645 121.538 5.0348 121.381 5.91264 121.381C6.79901 121.381 7.58097 121.536 8.25852 121.847C8.94034 122.158 9.47727 122.586 9.86932 123.132C10.2614 123.673 10.4659 124.295 10.483 124.998H8.57812ZM17.4007 134.829C16.5229 134.829 15.7388 134.678 15.0485 134.376C14.3624 134.073 13.8191 133.653 13.4185 133.116C13.0222 132.575 12.8091 131.949 12.7793 131.237H14.7864C14.812 131.625 14.9419 131.961 15.1763 132.247C15.415 132.528 15.726 132.746 16.1096 132.899C16.4931 133.052 16.9192 133.129 17.388 133.129C17.9036 133.129 18.3596 133.04 18.7559 132.861C19.1564 132.682 19.4696 132.432 19.6955 132.113C19.9213 131.789 20.0343 131.416 20.0343 130.994C20.0343 130.555 19.9213 130.17 19.6955 129.837C19.4739 129.501 19.1479 129.236 18.7175 129.045C18.2914 128.853 17.7757 128.757 17.1706 128.757H16.0648V127.146H17.1706C17.6564 127.146 18.0826 127.059 18.449 126.884C18.8198 126.709 19.1096 126.466 19.3184 126.155C19.5272 125.84 19.6316 125.471 19.6316 125.05C19.6316 124.645 19.54 124.293 19.3567 123.995C19.1777 123.692 18.9221 123.456 18.5897 123.285C18.2615 123.115 17.8738 123.03 17.4263 123.03C17.0002 123.03 16.6017 123.108 16.231 123.266C15.8645 123.42 15.5662 123.641 15.3361 123.931C15.106 124.216 14.9824 124.559 14.9654 124.96H13.0542C13.0755 124.253 13.2843 123.631 13.6806 123.094C14.0811 122.557 14.6096 122.137 15.2658 121.834C15.9221 121.532 16.6507 121.381 17.4519 121.381C18.2914 121.381 19.0158 121.545 19.6252 121.873C20.2388 122.197 20.7118 122.629 21.0442 123.17C21.3809 123.711 21.5471 124.304 21.5428 124.947C21.5471 125.68 21.3425 126.302 20.9292 126.814C20.5201 127.325 19.9746 127.668 19.2928 127.843V127.945C20.1621 128.077 20.8354 128.422 21.3127 128.981C21.7942 129.539 22.0328 130.231 22.0286 131.058C22.0328 131.778 21.8326 132.424 21.4277 132.995C21.0272 133.566 20.4796 134.015 19.785 134.344C19.0904 134.667 18.2956 134.829 17.4007 134.829ZM26.2282 131.32L26.2154 128.987H26.5478L30.4597 124.832H32.748L28.2864 129.562H27.986L26.2282 131.32ZM24.4703 134.65V121.559H26.3816V134.65H24.4703ZM30.6706 134.65L27.155 129.984L28.4718 128.648L33.0165 134.65H30.6706Z" fill="#4D4D4D"/>
<path d="M5.29901 192.837V176.473H6.3473V192.837H5.29901ZM8.57812 181.548C8.50994 180.943 8.22869 180.474 7.73438 180.142C7.24006 179.805 6.6179 179.637 5.8679 179.637C5.33097 179.637 4.86648 179.722 4.47443 179.893C4.08239 180.059 3.7777 180.289 3.56037 180.583C3.3473 180.873 3.24077 181.203 3.24077 181.574C3.24077 181.885 3.31321 182.153 3.4581 182.379C3.60724 182.605 3.80114 182.795 4.03977 182.948C4.28267 183.097 4.54261 183.223 4.8196 183.325C5.09659 183.423 5.36293 183.504 5.61861 183.568L6.89702 183.9C7.31463 184.003 7.7429 184.141 8.18182 184.316C8.62074 184.491 9.0277 184.721 9.4027 185.006C9.7777 185.292 10.0803 185.646 10.3104 186.067C10.5447 186.489 10.6619 186.994 10.6619 187.582C10.6619 188.324 10.4702 188.982 10.0866 189.557C9.70739 190.133 9.15554 190.587 8.43111 190.919C7.71094 191.251 6.83949 191.418 5.81676 191.418C4.83665 191.418 3.98864 191.262 3.27273 190.951C2.55682 190.64 1.99645 190.199 1.59162 189.628C1.18679 189.052 0.963068 188.371 0.920455 187.582H2.90199C2.94034 188.055 3.09375 188.449 3.36222 188.765C3.63494 189.076 3.98224 189.308 4.40412 189.462C4.83026 189.611 5.29688 189.685 5.80398 189.685C6.36222 189.685 6.85867 189.598 7.29332 189.423C7.73224 189.244 8.07742 188.997 8.32884 188.682C8.58026 188.362 8.70597 187.989 8.70597 187.563C8.70597 187.175 8.59517 186.858 8.37358 186.611C8.15625 186.364 7.86009 186.159 7.48509 185.997C7.11435 185.835 6.6946 185.692 6.22585 185.569L4.67898 185.147C3.63068 184.861 2.79972 184.442 2.18608 183.888C1.5767 183.334 1.27202 182.601 1.27202 181.689C1.27202 180.935 1.47656 180.276 1.88565 179.714C2.29474 179.151 2.84872 178.714 3.54759 178.403C4.24645 178.088 5.0348 177.93 5.91264 177.93C6.79901 177.93 7.58097 178.086 8.25852 178.397C8.94034 178.708 9.47727 179.136 9.86932 179.682C10.2614 180.223 10.4659 180.845 10.483 181.548H8.57812ZM12.8432 191.2V189.768L17.2729 185.179C17.7459 184.68 18.1358 184.244 18.4426 183.869C18.7537 183.489 18.986 183.129 19.1394 182.788C19.2928 182.447 19.3695 182.085 19.3695 181.702C19.3695 181.267 19.2672 180.892 19.0627 180.577C18.8581 180.257 18.579 180.012 18.2253 179.842C17.8716 179.667 17.4732 179.579 17.03 179.579C16.5613 179.579 16.1522 179.675 15.8027 179.867C15.4533 180.059 15.1848 180.329 14.9973 180.679C14.8098 181.028 14.7161 181.437 14.7161 181.906H12.8304C12.8304 181.109 13.0137 180.413 13.3801 179.816C13.7466 179.219 14.2495 178.757 14.8887 178.429C15.5279 178.097 16.2544 177.93 17.0684 177.93C17.8908 177.93 18.6152 178.094 19.2417 178.422C19.8723 178.746 20.3645 179.19 20.7182 179.752C21.0719 180.31 21.2488 180.941 21.2488 181.644C21.2488 182.13 21.1571 182.605 20.9739 183.07C20.7949 183.534 20.4817 184.052 20.0343 184.623C19.5868 185.19 18.9647 185.878 18.1678 186.687L15.5662 189.41V189.506H21.4597V191.2H12.8432ZM25.6657 187.87L25.6529 185.537H25.9853L29.8972 181.382H32.1855L27.7239 186.112H27.4235L25.6657 187.87ZM23.9078 191.2V178.109H25.8191V191.2H23.9078ZM30.1081 191.2L26.5925 186.534L27.9093 185.198L32.454 191.2H30.1081Z" fill="#4D4D4D"/>
<path d="M5.29901 249.387V233.023H6.3473V249.387H5.29901ZM8.57812 238.098C8.50994 237.493 8.22869 237.025 7.73438 236.692C7.24006 236.356 6.6179 236.187 5.8679 236.187C5.33097 236.187 4.86648 236.273 4.47443 236.443C4.08239 236.609 3.7777 236.839 3.56037 237.133C3.3473 237.423 3.24077 237.753 3.24077 238.124C3.24077 238.435 3.31321 238.704 3.4581 238.929C3.60724 239.155 3.80114 239.345 4.03977 239.498C4.28267 239.648 4.54261 239.773 4.8196 239.875C5.09659 239.973 5.36293 240.054 5.61861 240.118L6.89702 240.451C7.31463 240.553 7.7429 240.692 8.18182 240.866C8.62074 241.041 9.0277 241.271 9.4027 241.557C9.7777 241.842 10.0803 242.196 10.3104 242.618C10.5447 243.04 10.6619 243.545 10.6619 244.133C10.6619 244.874 10.4702 245.532 10.0866 246.108C9.70739 246.683 9.15554 247.137 8.43111 247.469C7.71094 247.802 6.83949 247.968 5.81676 247.968C4.83665 247.968 3.98864 247.812 3.27273 247.501C2.55682 247.19 1.99645 246.749 1.59162 246.178C1.18679 245.603 0.963068 244.921 0.920455 244.133H2.90199C2.94034 244.606 3.09375 245 3.36222 245.315C3.63494 245.626 3.98224 245.858 4.40412 246.012C4.83026 246.161 5.29688 246.236 5.80398 246.236C6.36222 246.236 6.85867 246.148 7.29332 245.973C7.73224 245.795 8.07742 245.547 8.32884 245.232C8.58026 244.912 8.70597 244.54 8.70597 244.113C8.70597 243.726 8.59517 243.408 8.37358 243.161C8.15625 242.914 7.86009 242.709 7.48509 242.547C7.11435 242.385 6.6946 242.243 6.22585 242.119L4.67898 241.697C3.63068 241.412 2.79972 240.992 2.18608 240.438C1.5767 239.884 1.27202 239.151 1.27202 238.239C1.27202 237.485 1.47656 236.826 1.88565 236.264C2.29474 235.701 2.84872 235.265 3.54759 234.954C4.24645 234.638 5.0348 234.481 5.91264 234.481C6.79901 234.481 7.58097 234.636 8.25852 234.947C8.94034 235.258 9.47727 235.687 9.86932 236.232C10.2614 236.773 10.4659 237.395 10.483 238.098H8.57812ZM17.8098 234.66V247.75H15.8283V236.641H15.7516L12.6195 238.687V236.795L15.8858 234.66H17.8098ZM23.1344 244.42L23.1216 242.087H23.454L27.3659 237.932H29.6543L25.1926 242.662H24.8922L23.1344 244.42ZM21.3766 247.75V234.66H23.2878V247.75H21.3766ZM27.5769 247.75L24.0613 243.084L25.378 241.748L29.9228 247.75H27.5769Z" fill="#4D4D4D"/>
<path d="M5.29901 305.936V289.573H6.3473V305.936H5.29901ZM8.57812 294.648C8.50994 294.043 8.22869 293.574 7.73438 293.242C7.24006 292.905 6.6179 292.737 5.8679 292.737C5.33097 292.737 4.86648 292.822 4.47443 292.992C4.08239 293.158 3.7777 293.389 3.56037 293.683C3.3473 293.972 3.24077 294.303 3.24077 294.673C3.24077 294.984 3.31321 295.253 3.4581 295.479C3.60724 295.705 3.80114 295.894 4.03977 296.048C4.28267 296.197 4.54261 296.323 4.8196 296.425C5.09659 296.523 5.36293 296.604 5.61861 296.668L6.89702 297C7.31463 297.102 7.7429 297.241 8.18182 297.416C8.62074 297.59 9.0277 297.82 9.4027 298.106C9.7777 298.391 10.0803 298.745 10.3104 299.167C10.5447 299.589 10.6619 300.094 10.6619 300.682C10.6619 301.423 10.4702 302.082 10.0866 302.657C9.70739 303.232 9.15554 303.686 8.43111 304.019C7.71094 304.351 6.83949 304.517 5.81676 304.517C4.83665 304.517 3.98864 304.362 3.27273 304.051C2.55682 303.739 1.99645 303.298 1.59162 302.727C1.18679 302.152 0.963068 301.47 0.920455 300.682H2.90199C2.94034 301.155 3.09375 301.549 3.36222 301.864C3.63494 302.176 3.98224 302.408 4.40412 302.561C4.83026 302.71 5.29688 302.785 5.80398 302.785C6.36222 302.785 6.85867 302.698 7.29332 302.523C7.73224 302.344 8.07742 302.097 8.32884 301.781C8.58026 301.462 8.70597 301.089 8.70597 300.663C8.70597 300.275 8.59517 299.957 8.37358 299.71C8.15625 299.463 7.86009 299.259 7.48509 299.097C7.11435 298.935 6.6946 298.792 6.22585 298.668L4.67898 298.247C3.63068 297.961 2.79972 297.541 2.18608 296.987C1.5767 296.433 1.27202 295.7 1.27202 294.788C1.27202 294.034 1.47656 293.376 1.88565 292.813C2.29474 292.251 2.84872 291.814 3.54759 291.503C4.24645 291.188 5.0348 291.03 5.91264 291.03C6.79901 291.03 7.58097 291.185 8.25852 291.497C8.94034 291.808 9.47727 292.236 9.86932 292.781C10.2614 293.323 10.4659 293.945 10.483 294.648H8.57812ZM17.4007 304.517C16.3908 304.513 15.5279 304.247 14.812 303.718C14.0961 303.19 13.5485 302.421 13.1692 301.411C12.79 300.401 12.6003 299.184 12.6003 297.761C12.6003 296.342 12.79 295.129 13.1692 294.124C13.5527 293.118 14.1025 292.351 14.8184 291.823C15.5385 291.294 16.3993 291.03 17.4007 291.03C18.4022 291.03 19.2608 291.296 19.9767 291.829C20.6926 292.357 21.2402 293.124 21.6195 294.13C22.003 295.131 22.1948 296.342 22.1948 297.761C22.1948 299.188 22.0051 300.407 21.6259 301.417C21.2466 302.423 20.699 303.192 19.9831 303.725C19.2672 304.253 18.4064 304.517 17.4007 304.517ZM17.4007 302.81C18.2871 302.81 18.9796 302.378 19.4782 301.513C19.981 300.648 20.2324 299.397 20.2324 297.761C20.2324 296.674 20.1174 295.756 19.8873 295.006C19.6614 294.252 19.3354 293.68 18.9093 293.293C18.4874 292.901 17.9846 292.705 17.4007 292.705C16.5186 292.705 15.8262 293.139 15.3233 294.009C14.8205 294.878 14.5669 296.129 14.5627 297.761C14.5627 298.852 14.6756 299.774 14.9015 300.528C15.1316 301.278 15.4576 301.847 15.8794 302.235C16.3013 302.619 16.8084 302.81 17.4007 302.81Z" fill="#4D4D4D"/>
<line x1="63" y1="24.275" x2="493" y2="24.275" stroke="#B9B9B9" stroke-width="1.45" stroke-dasharray="15.95 15.95"/>
<line x1="63" y1="80.275" x2="493" y2="80.275" stroke="#B9B9B9" stroke-width="1.45" stroke-dasharray="15.95 15.95"/>
<line x1="63" y1="135.275" x2="493" y2="135.275" stroke="#B9B9B9" stroke-width="1.45" stroke-dasharray="15.95 15.95"/>
<line x1="63" y1="192.275" x2="493" y2="192.275" stroke="#B9B9B9" stroke-width="1.45" stroke-dasharray="15.95 15.95"/>
<line x1="63" y1="248.275" x2="493" y2="248.275" stroke="#B9B9B9" stroke-width="1.45" stroke-dasharray="15.95 15.95"/>
<line x1="63" y1="305.275" x2="493" y2="305.275" stroke="#B9B9B9" stroke-width="1.45" stroke-dasharray="15.95 15.95"/>
<path d="M92.9123 319.877H95.4498V331.839C95.4498 332.921 95.2356 333.847 94.8072 334.616C94.3843 335.385 93.7884 335.972 93.0194 336.379C92.2505 336.78 91.3497 336.98 90.3172 336.98C89.367 336.98 88.5129 336.807 87.7549 336.461C87.0025 336.115 86.4066 335.613 85.9672 334.953C85.5333 334.289 85.3163 333.482 85.3163 332.531H87.8456C87.8456 332.998 87.9527 333.402 88.1669 333.742C88.3866 334.083 88.6859 334.349 89.0649 334.542C89.4494 334.728 89.8888 334.822 90.3831 334.822C90.9213 334.822 91.3772 334.709 91.7507 334.484C92.1297 334.253 92.418 333.915 92.6157 333.471C92.8135 333.026 92.9123 332.482 92.9123 331.839V319.877ZM106.974 331.501V324.095H109.445V336.75H107.023V334.558H106.891C106.6 335.234 106.133 335.797 105.491 336.247C104.854 336.692 104.06 336.914 103.11 336.914C102.297 336.914 101.577 336.736 100.951 336.379C100.331 336.016 99.8417 335.481 99.4847 334.772C99.1332 334.064 98.9574 333.188 98.9574 332.144V324.095H101.421V331.848C101.421 332.71 101.66 333.396 102.138 333.907C102.615 334.418 103.236 334.673 103.999 334.673C104.461 334.673 104.919 334.558 105.375 334.327C105.837 334.097 106.218 333.748 106.521 333.281C106.828 332.814 106.979 332.221 106.974 331.501Z" fill="#4D4D4D"/>
<path d="M77.5 86.1997C77.5 83.4383 79.7386 81.1997 82.5 81.1997H114.55C117.311 81.1997 119.55 83.4383 119.55 86.1997V305.95H77.5V86.1997Z" fill="#FFEAD0"/>
<path d="M156.558 336.75H153.856L159.927 319.877H162.869L168.94 336.75H166.238L161.468 322.942H161.336L156.558 336.75ZM157.011 330.142H165.777V332.284H157.011V330.142ZM179.196 331.501V324.095H181.667V336.75H179.245V334.558H179.113C178.822 335.234 178.355 335.797 177.713 336.247C177.075 336.692 176.282 336.914 175.332 336.914C174.519 336.914 173.799 336.736 173.173 336.379C172.552 336.016 172.064 335.481 171.707 334.772C171.355 334.064 171.179 333.188 171.179 332.144V324.095H173.643V331.848C173.643 332.71 173.882 333.396 174.359 333.907C174.837 334.418 175.458 334.673 176.221 334.673C176.683 334.673 177.141 334.558 177.597 334.327C178.059 334.097 178.44 333.748 178.742 333.281C179.05 332.814 179.201 332.221 179.196 331.501Z" fill="#4D4D4D"/>
<path d="M148 229.75C148 226.989 150.239 224.75 153 224.75H185.05C187.811 224.75 190.05 226.989 190.05 229.75V305.951H148V229.75Z" fill="#FFEAD0"/>
<path d="M236.083 324.309C235.995 323.529 235.633 322.925 234.996 322.497C234.359 322.063 233.557 321.846 232.59 321.846C231.898 321.846 231.299 321.956 230.794 322.175C230.289 322.39 229.896 322.686 229.616 323.065C229.341 323.439 229.204 323.864 229.204 324.342C229.204 324.743 229.297 325.089 229.484 325.38C229.676 325.671 229.926 325.916 230.234 326.113C230.547 326.306 230.882 326.468 231.239 326.6C231.596 326.726 231.939 326.83 232.269 326.913L233.916 327.341C234.455 327.473 235.007 327.651 235.572 327.876C236.138 328.102 236.663 328.398 237.146 328.766C237.629 329.134 238.019 329.59 238.316 330.134C238.618 330.678 238.769 331.328 238.769 332.086C238.769 333.042 238.522 333.891 238.028 334.632C237.539 335.374 236.827 335.959 235.894 336.387C234.965 336.815 233.842 337.03 232.524 337.03C231.261 337.03 230.168 336.829 229.245 336.428C228.322 336.027 227.6 335.459 227.078 334.723C226.557 333.981 226.268 333.103 226.213 332.086H228.767C228.817 332.696 229.014 333.204 229.36 333.611C229.712 334.012 230.16 334.311 230.703 334.509C231.253 334.701 231.854 334.797 232.508 334.797C233.227 334.797 233.867 334.684 234.427 334.459C234.993 334.228 235.438 333.91 235.762 333.503C236.086 333.092 236.248 332.611 236.248 332.062C236.248 331.562 236.105 331.153 235.82 330.834C235.539 330.516 235.158 330.252 234.674 330.043C234.197 329.835 233.656 329.651 233.051 329.491L231.058 328.948C229.707 328.58 228.635 328.039 227.845 327.325C227.059 326.61 226.666 325.666 226.666 324.49C226.666 323.518 226.93 322.67 227.457 321.945C227.985 321.22 228.699 320.657 229.599 320.256C230.5 319.849 231.516 319.646 232.648 319.646C233.79 319.646 234.798 319.847 235.671 320.248C236.55 320.648 237.242 321.2 237.747 321.903C238.253 322.601 238.516 323.403 238.538 324.309H236.083ZM247.067 337.005C245.821 337.005 244.747 336.739 243.846 336.206C242.951 335.668 242.259 334.912 241.77 333.94C241.287 332.962 241.045 331.817 241.045 330.505C241.045 329.208 241.287 328.066 241.77 327.077C242.259 326.089 242.94 325.317 243.813 324.762C244.692 324.208 245.719 323.93 246.894 323.93C247.608 323.93 248.3 324.048 248.97 324.284C249.641 324.521 250.242 324.891 250.775 325.397C251.308 325.902 251.728 326.558 252.035 327.366C252.343 328.168 252.497 329.143 252.497 330.29V331.164H242.437V329.318H250.083C250.083 328.67 249.951 328.096 249.687 327.596C249.424 327.091 249.053 326.693 248.575 326.402C248.103 326.111 247.548 325.965 246.911 325.965C246.219 325.965 245.615 326.135 245.098 326.476C244.588 326.811 244.192 327.25 243.912 327.794C243.637 328.332 243.5 328.917 243.5 329.549V330.991C243.5 331.837 243.648 332.556 243.945 333.149C244.247 333.742 244.667 334.196 245.205 334.509C245.744 334.816 246.373 334.97 247.092 334.97C247.559 334.97 247.985 334.904 248.369 334.772C248.754 334.635 249.086 334.432 249.366 334.163C249.646 333.893 249.86 333.561 250.009 333.166L252.34 333.586C252.153 334.272 251.818 334.874 251.335 335.39C250.857 335.901 250.256 336.299 249.531 336.585C248.811 336.865 247.99 337.005 247.067 337.005Z" fill="#4D4D4D"/>
<path d="M219 141.3C219 138.539 221.239 136.3 224 136.3H256.05C258.811 136.3 261.05 138.539 261.05 141.3V305.95H219V141.3Z" fill="#FFEAD0"/>
<path d="M311.313 328.313C311.313 330.115 310.983 331.664 310.324 332.96C309.665 334.25 308.762 335.245 307.614 335.942C306.471 336.634 305.172 336.98 303.717 336.98C302.256 336.98 300.951 336.634 299.803 335.942C298.661 335.245 297.76 334.248 297.101 332.951C296.442 331.655 296.112 330.109 296.112 328.313C296.112 326.512 296.442 324.966 297.101 323.675C297.76 322.379 298.661 321.384 299.803 320.692C300.951 319.995 302.256 319.646 303.717 319.646C305.172 319.646 306.471 319.995 307.614 320.692C308.762 321.384 309.665 322.379 310.324 323.675C310.983 324.966 311.313 326.512 311.313 328.313ZM308.792 328.313C308.792 326.94 308.569 325.784 308.124 324.845C307.685 323.9 307.081 323.186 306.312 322.703C305.548 322.214 304.683 321.969 303.717 321.969C302.745 321.969 301.877 322.214 301.113 322.703C300.35 323.186 299.746 323.9 299.301 324.845C298.861 325.784 298.642 326.94 298.642 328.313C298.642 329.686 298.861 330.845 299.301 331.79C299.746 332.729 300.35 333.443 301.113 333.932C301.877 334.415 302.745 334.657 303.717 334.657C304.683 334.657 305.548 334.415 306.312 333.932C307.081 333.443 307.685 332.729 308.124 331.79C308.569 330.845 308.792 329.686 308.792 328.313ZM319.619 337.005C318.395 337.005 317.34 336.728 316.456 336.173C315.577 335.613 314.901 334.841 314.429 333.858C313.957 332.875 313.721 331.749 313.721 330.48C313.721 329.195 313.962 328.06 314.446 327.077C314.929 326.089 315.61 325.317 316.489 324.762C317.367 324.208 318.403 323.93 319.595 323.93C320.556 323.93 321.413 324.109 322.165 324.466C322.918 324.817 323.524 325.312 323.986 325.949C324.453 326.586 324.73 327.33 324.818 328.181H322.421C322.289 327.588 321.987 327.077 321.514 326.649C321.047 326.221 320.421 326.006 319.636 326.006C318.949 326.006 318.348 326.188 317.832 326.55C317.321 326.907 316.923 327.418 316.637 328.082C316.351 328.742 316.209 329.521 316.209 330.422C316.209 331.345 316.349 332.141 316.629 332.811C316.909 333.482 317.304 334.001 317.815 334.369C318.331 334.737 318.938 334.921 319.636 334.921C320.103 334.921 320.526 334.835 320.905 334.665C321.289 334.489 321.61 334.239 321.869 333.915C322.132 333.591 322.316 333.201 322.421 332.746H324.818C324.73 333.564 324.464 334.294 324.019 334.937C323.574 335.58 322.978 336.085 322.231 336.453C321.49 336.821 320.619 337.005 319.619 337.005Z" fill="#4D4D4D"/>
<path d="M290 158.701C290 155.939 292.239 153.701 295 153.701H327.05C329.811 153.701 332.05 155.939 332.05 158.701V305.951H290V158.701Z" fill="#FFEAD0"/>
<path d="M381.117 319.877V336.75H378.777L370.201 324.375H370.044V336.75H367.499V319.877H369.855L378.44 332.268H378.596V319.877H381.117ZM389.963 337.005C388.777 337.005 387.742 336.733 386.857 336.189C385.973 335.646 385.287 334.885 384.798 333.907C384.309 332.93 384.064 331.787 384.064 330.48C384.064 329.167 384.309 328.019 384.798 327.036C385.287 326.053 385.973 325.29 386.857 324.746C387.742 324.202 388.777 323.93 389.963 323.93C391.15 323.93 392.185 324.202 393.069 324.746C393.954 325.29 394.64 326.053 395.129 327.036C395.618 328.019 395.862 329.167 395.862 330.48C395.862 331.787 395.618 332.93 395.129 333.907C394.64 334.885 393.954 335.646 393.069 336.189C392.185 336.733 391.15 337.005 389.963 337.005ZM389.972 334.937C390.741 334.937 391.378 334.734 391.883 334.327C392.388 333.921 392.762 333.38 393.003 332.704C393.251 332.029 393.374 331.285 393.374 330.472C393.374 329.664 393.251 328.923 393.003 328.247C392.762 327.566 392.388 327.02 391.883 326.608C391.378 326.196 390.741 325.99 389.972 325.99C389.197 325.99 388.555 326.196 388.044 326.608C387.538 327.02 387.162 327.566 386.915 328.247C386.673 328.923 386.553 329.664 386.553 330.472C386.553 331.285 386.673 332.029 386.915 332.704C387.162 333.38 387.538 333.921 388.044 334.327C388.555 334.734 389.197 334.937 389.972 334.937Z" fill="#4D4D4D"/>
<path d="M361 221.05C361 218.289 363.239 216.05 366 216.05H398.05C400.811 216.05 403.05 218.289 403.05 221.05V305.95H361V221.05Z" fill="#FF8C38"/>
<path d="M444.436 336.75H438.974V319.877H444.609C446.262 319.877 447.682 320.215 448.869 320.89C450.055 321.56 450.964 322.524 451.596 323.782C452.233 325.034 452.551 326.536 452.551 328.288C452.551 330.046 452.23 331.556 451.587 332.82C450.95 334.083 450.027 335.055 448.819 335.736C447.611 336.412 446.15 336.75 444.436 336.75ZM441.52 334.525H444.296C445.581 334.525 446.65 334.283 447.501 333.8C448.352 333.311 448.989 332.605 449.412 331.683C449.835 330.755 450.047 329.623 450.047 328.288C450.047 326.965 449.835 325.842 449.412 324.919C448.995 323.996 448.371 323.296 447.542 322.818C446.713 322.34 445.683 322.101 444.453 322.101H441.52V334.525ZM460.973 337.005C459.726 337.005 458.653 336.739 457.752 336.206C456.857 335.668 456.165 334.912 455.676 333.94C455.192 332.962 454.951 331.817 454.951 330.505C454.951 329.208 455.192 328.066 455.676 327.077C456.165 326.089 456.846 325.317 457.719 324.762C458.598 324.208 459.625 323.93 460.8 323.93C461.514 323.93 462.206 324.048 462.876 324.284C463.546 324.521 464.148 324.891 464.681 325.397C465.213 325.902 465.633 326.558 465.941 327.366C466.249 328.168 466.402 329.143 466.402 330.29V331.164H456.343V329.318H463.988C463.988 328.67 463.857 328.096 463.593 327.596C463.329 327.091 462.959 326.693 462.481 326.402C462.008 326.111 461.454 325.965 460.817 325.965C460.125 325.965 459.52 326.135 459.004 326.476C458.493 326.811 458.098 327.25 457.818 327.794C457.543 328.332 457.406 328.917 457.406 329.549V330.991C457.406 331.837 457.554 332.556 457.851 333.149C458.153 333.742 458.573 334.196 459.111 334.509C459.649 334.816 460.278 334.97 460.998 334.97C461.465 334.97 461.89 334.904 462.275 334.772C462.659 334.635 462.992 334.432 463.272 334.163C463.552 333.893 463.766 333.561 463.914 333.166L466.246 333.586C466.059 334.272 465.724 334.874 465.241 335.39C464.763 335.901 464.161 336.299 463.436 336.585C462.717 336.865 461.896 337.005 460.973 337.005Z" fill="#4D4D4D"/>
<path d="M432 277.6C432 274.838 434.239 272.6 437 272.6H469.05C471.811 272.6 474.05 274.838 474.05 277.6V305.95H432V277.6Z" fill="#FF8C38"/>
</svg>
