<svg width="128" height="128" viewBox="0 0 128 128" fill="none" xmlns="http://www.w3.org/2000/svg">
<path d="M63.9997 17.3333C65.0605 17.3333 66.078 17.7547 66.8281 18.5048C67.5782 19.255 67.9997 20.2724 67.9997 21.3333C67.9997 22.3941 67.5782 23.4115 66.8281 24.1617C66.078 24.9118 65.0605 25.3333 63.9997 25.3333C53.7446 25.3333 43.9096 29.4071 36.6582 36.6585C29.4068 43.9099 25.333 53.7449 25.333 63.9999C25.333 74.255 29.4068 84.09 36.6582 91.3414C43.9096 98.5928 53.7446 102.667 63.9997 102.667C65.0605 102.667 66.078 103.088 66.8281 103.838C67.5782 104.588 67.9997 105.606 67.9997 106.667C67.9997 107.727 67.5782 108.745 66.8281 109.495C66.078 110.245 65.0605 110.667 63.9997 110.667C51.6229 110.667 39.7531 105.75 31.0014 96.9982C22.2497 88.2465 17.333 76.3767 17.333 63.9999C17.333 51.6231 22.2497 39.7533 31.0014 31.0016C39.7531 22.2499 51.6229 17.3333 63.9997 17.3333Z" fill="black"/>
<path d="M87.8397 50.8267C87.1331 50.0685 86.7485 49.0656 86.7667 48.0293C86.785 46.993 87.2048 46.0043 87.9377 45.2714C88.6706 44.5386 89.6593 44.1188 90.6956 44.1005C91.7318 44.0822 92.7347 44.4669 93.493 45.1734L109.493 61.1734C110.242 61.9234 110.663 62.9401 110.663 64.0001C110.663 65.0601 110.242 66.0767 109.493 66.8267L93.493 82.8267C93.1268 83.2197 92.6852 83.535 92.1946 83.7536C91.7039 83.9722 91.1742 84.0898 90.6371 84.0992C90.1 84.1087 89.5666 84.0099 89.0685 83.8087C88.5704 83.6076 88.118 83.3081 87.7381 82.9283C87.3583 82.5484 87.0589 82.096 86.8577 81.5979C86.6565 81.0999 86.5577 80.5664 86.5672 80.0293C86.5767 79.4922 86.6942 78.9625 86.9128 78.4719C87.1315 77.9812 87.4467 77.5396 87.8397 77.1734L97.013 68.0001H53.333C52.2721 68.0001 51.2547 67.5786 50.5046 66.8285C49.7544 66.0784 49.333 65.0609 49.333 64.0001C49.333 62.9392 49.7544 61.9218 50.5046 61.1717C51.2547 60.4215 52.2721 60.0001 53.333 60.0001H97.013L87.8397 50.8267Z" fill="black"/>
</svg>
