<svg width="640" height="640" viewBox="0 0 640 640" fill="none" xmlns="http://www.w3.org/2000/svg">
<path d="M640 489.47H0V489.79H640V489.47Z" fill="#EBEBEB"/>
<path d="M575.874 510.073H533.478V510.393H575.874V510.073Z" fill="#EBEBEB"/>
<path d="M423.962 513.547H412.835V513.867H423.962V513.547Z" fill="#EBEBEB"/>
<path d="M532.196 498.187H507.63V498.507H532.196V498.187Z" fill="#EBEBEB"/>
<path d="M122.435 500.338H67.1475V500.658H122.435V500.338Z" fill="#EBEBEB"/>
<path d="M141.938 500.338H133.832V500.658H141.938V500.338Z" fill="#EBEBEB"/>
<path d="M288.189 505.742H168.283V506.062H288.189V505.742Z" fill="#EBEBEB"/>
<path d="M303.378 432.384H56.2115C52.1834 432.384 48.9053 429.106 48.9053 425.078V77.6451C48.9053 73.6169 52.1834 70.3389 56.2115 70.3389H303.378C307.405 70.3389 310.683 73.6169 310.683 77.6451V425.078C310.683 429.106 307.405 432.384 303.378 432.384ZM56.2115 70.6601C52.3587 70.6601 49.2253 73.7936 49.2253 77.6464V425.079C49.2253 428.932 52.3587 432.066 56.2115 432.066H303.378C307.23 432.066 310.363 428.932 310.363 425.079V77.6451C310.363 73.7936 307.23 70.6589 303.378 70.6589L56.2115 70.6601Z" fill="#EBEBEB"/>
<path d="M580.237 432.384H333.072C329.043 432.384 325.767 429.106 325.767 425.078V77.6451C325.767 73.6169 329.045 70.3389 333.072 70.3389H580.237C584.266 70.3389 587.543 73.6169 587.543 77.6451V425.078C587.545 429.106 584.266 432.384 580.237 432.384ZM333.072 70.6601C329.22 70.6601 326.087 73.7936 326.087 77.6464V425.079C326.087 428.932 329.22 432.066 333.072 432.066H580.237C584.09 432.066 587.223 428.932 587.223 425.079V77.6451C587.223 73.7936 584.09 70.6589 580.237 70.6589L333.072 70.6601Z" fill="#EBEBEB"/>
<path d="M355.492 205.686L354.916 188.866L365.243 185.492C365.668 179.744 366.628 174.069 367.996 168.601L359.244 162.147L365.189 146.348L376.016 147.22C378.596 142.111 381.628 137.251 385.027 132.692L379.419 123.331L390.949 111.029L400.629 115.985C404.988 112.279 409.584 108.925 414.504 105.958L412.936 95.2132L428.293 88.2436L435.329 96.4894C440.69 94.7499 446.244 93.4494 451.99 92.5867L454.606 82.0548L471.472 81.4775L474.802 91.8059C480.594 92.2731 486.225 93.1908 491.692 94.5591L498.192 85.8487L513.989 91.7508L513.116 102.578C518.226 105.202 523.085 108.233 527.644 111.633L536.96 106.027L549.307 117.51L544.352 127.232C548.055 131.549 551.413 136.19 554.337 141.11L565.079 139.499L572.092 154.854L563.803 161.891C565.541 167.253 566.889 172.85 567.706 178.554L578.284 181.211L578.86 198.032L568.489 201.41C568.065 207.199 567.103 212.832 565.736 218.299L574.487 224.753L568.542 240.553L557.715 239.679C555.135 244.788 552.103 249.648 548.704 254.207L554.313 263.568L542.782 275.871L533.104 270.914C528.787 274.618 524.147 277.977 519.23 280.944L520.841 291.684L505.484 298.654L498.403 290.409C493.042 292.149 487.488 293.449 481.741 294.312L479.125 304.844L462.259 305.421L458.928 295.093C453.136 294.626 447.506 293.707 442.039 292.34L435.584 301.049L419.786 295.147L420.616 284.323C415.505 281.699 410.691 278.664 406.088 275.266L396.771 280.875L384.425 269.389L389.379 259.666C385.676 255.35 382.318 250.709 379.395 245.789L368.653 247.401L361.64 232.045L369.93 225.008C368.191 219.647 366.846 214.095 366.028 208.347L355.492 205.686ZM469.152 260.177C505.988 258.915 534.833 228.023 533.571 191.186C532.307 154.306 501.416 125.463 464.58 126.726C427.744 127.988 398.899 158.877 400.163 195.757C401.425 232.594 432.316 261.439 469.152 260.177Z" fill="#EBEBEB"/>
<path d="M153.311 405.037L153.051 397.453L157.707 395.931C157.899 393.34 158.332 390.78 158.949 388.315L155.003 385.404L157.683 378.281L162.565 378.674C163.729 376.37 165.096 374.179 166.628 372.123L164.1 367.903L169.299 362.355L173.664 364.59C175.63 362.92 177.701 361.407 179.921 360.068L179.214 355.223L186.139 352.081L189.312 355.799C191.73 355.015 194.234 354.428 196.824 354.039L198.004 349.29L205.609 349.029L207.11 353.686C209.721 353.897 212.261 354.311 214.726 354.928L217.658 351.001L224.781 353.662L224.386 358.544C226.69 359.726 228.882 361.093 230.938 362.627L235.138 360.099L240.705 365.276L238.47 369.66C240.139 371.607 241.654 373.699 242.972 375.918L247.816 375.191L250.978 382.115L247.241 385.288C248.024 387.706 248.632 390.23 249.001 392.801L253.77 394L254.03 401.584L249.354 403.107C249.163 405.718 248.73 408.257 248.113 410.721L252.059 413.632L249.378 420.757L244.497 420.362C243.333 422.666 241.966 424.858 240.434 426.913L242.963 431.134L237.764 436.681L233.4 434.446C231.455 436.117 229.362 437.631 227.144 438.969L227.871 443.812L220.946 446.954L217.754 443.237C215.336 444.022 212.832 444.608 210.24 444.997L209.061 449.746L201.457 450.006L199.954 445.349C197.343 445.138 194.804 444.725 192.338 444.108L189.427 448.035L182.304 445.374L182.678 440.493C180.372 439.31 178.203 437.942 176.127 436.409L171.926 438.938L166.359 433.759L168.593 429.375C166.923 427.428 165.409 425.337 164.091 423.117L159.247 423.844L156.084 416.919L159.823 413.746C159.039 411.329 158.432 408.825 158.063 406.234L153.311 405.037ZM204.561 429.607C221.17 429.037 234.176 415.108 233.608 398.499C233.038 381.869 219.109 368.864 202.498 369.432C185.889 370.002 172.882 383.93 173.453 400.56C174.022 417.17 187.951 430.176 204.561 429.607Z" fill="#F5F5F5"/>
<path d="M150.647 122.933L146.405 118.971L148.101 115.63C146.803 114.125 145.654 112.507 144.654 110.841L140.946 111.401L138.543 106.099L141.397 103.673C140.78 101.797 140.334 99.8735 140.051 97.933L136.402 97.0178L136.214 91.2066L139.783 90.0546C139.943 88.0885 140.245 86.1493 140.721 84.2268L137.719 81.9893L139.765 76.5455L143.491 76.8399C144.374 75.108 145.411 73.4364 146.601 71.8261L144.671 68.6197L148.643 64.3663L151.973 66.0725C153.5 64.7746 155.096 63.6252 156.763 62.6255L156.224 58.916L161.516 56.5032L163.943 59.3564C165.828 58.7496 167.752 58.3042 169.694 58.0213L170.599 54.3823L176.41 54.1724L177.572 57.7512C179.528 57.901 181.477 58.2133 183.391 58.701L185.617 55.6892L191.071 57.7231L190.766 61.4607C192.498 62.3439 194.191 63.3807 195.781 64.5724L199.008 62.6408L203.25 66.6024L201.545 69.9548C202.853 71.4703 203.992 73.078 204.992 74.7445L208.7 74.1839L211.103 79.4869L208.25 81.9138C208.867 83.789 209.312 85.7128 209.595 87.6533L213.246 88.5685L213.434 94.381L209.865 95.5317C209.715 97.4876 209.403 99.4383 208.928 101.361L211.94 103.587L209.895 109.031L206.157 108.746C205.274 110.478 204.237 112.15 203.047 113.761L204.977 116.968L201.005 121.221L197.674 119.515C196.149 120.813 194.551 121.962 192.885 122.962L193.434 126.66L188.142 129.073L185.705 126.231C183.82 126.838 181.905 127.272 179.954 127.565L179.05 131.204L173.239 131.414L172.077 127.835C170.121 127.685 168.172 127.373 166.258 126.885L164.032 129.898L158.578 127.865L158.884 124.127C157.153 123.244 155.47 122.218 153.869 121.017L150.647 122.933ZM180.876 98.445C183.996 95.1029 183.817 89.8613 180.475 86.7407C177.129 83.6162 171.887 83.7954 168.767 87.1375C165.646 90.4796 165.825 95.7199 169.171 98.8456C172.513 101.966 177.755 101.787 180.876 98.445Z" fill="#EBEBEB"/>
<path d="M268.007 398.11L277.686 391.424C277.689 391.416 277.689 391.408 277.691 391.401C278.649 387.885 279.97 384.499 281.584 381.319L279.104 371.585L293.145 356.548L303.028 358.358C306.088 356.531 309.373 354.984 312.813 353.788C312.821 353.786 312.83 353.784 312.838 353.781L318.847 343.662L339.407 342.958L346.092 352.638C346.105 352.641 346.118 352.644 346.13 352.647C349.644 353.604 353.024 354.921 356.203 356.534L365.931 354.055L380.967 368.096L379.161 377.96C379.163 377.964 379.165 377.965 379.166 377.969C381.031 381.064 382.543 384.351 383.738 387.792L393.855 393.799L394.559 414.359L384.871 421.05C383.915 424.59 382.635 427.967 380.989 431.176C380.989 431.176 380.987 431.177 380.987 431.18L383.46 440.882L369.42 455.917L359.599 454.12C356.498 455.953 353.21 457.503 349.727 458.7C349.725 458.701 349.722 458.702 349.718 458.702L343.719 468.807L323.159 469.511L316.479 459.838C312.925 458.881 309.538 457.562 306.322 455.945L306.32 455.944L296.635 458.412L281.599 444.373L283.405 434.508C281.54 431.413 280.029 428.124 278.833 424.684L278.832 424.682L268.712 418.673L268.007 398.11ZM332.08 429.363C344.861 428.926 354.845 418.195 354.407 405.452C353.969 392.671 343.276 382.686 330.495 383.123C317.714 383.561 307.729 394.254 308.168 407.035C308.605 419.78 319.299 429.801 332.08 429.363Z" fill="#EBEBEB"/>
<path d="M94.8483 154.819C94.3722 154.819 93.9255 154.585 93.6528 154.192L90.0816 149.021C88.3395 148.52 86.6128 147.858 84.9322 147.047L79.8403 148.343C79.3591 148.464 78.8522 148.335 78.4912 147.997L69.7808 139.863C69.4186 139.526 69.2547 139.028 69.3431 138.541L70.2915 133.358C69.3943 131.803 68.6173 130.132 67.976 128.377L62.5629 125.161C62.1367 124.909 61.8691 124.457 61.8525 123.962L61.4442 112.05C61.4275 111.555 61.6631 111.087 62.0701 110.805L67.2464 107.23C67.7392 105.517 68.4061 103.783 69.2202 102.109L67.9159 96.9924C67.7943 96.5124 67.9248 96.0043 68.2615 95.642L76.3946 86.9303C76.7325 86.5681 77.2304 86.4068 77.7181 86.4926L82.9136 87.4436C84.5085 86.5284 86.1763 85.7502 87.8839 85.1243L91.0979 79.7124C91.3501 79.2875 91.802 79.0199 92.2973 79.0033L104.208 78.595C104.701 78.586 105.172 78.8139 105.452 79.2209L109.028 84.3985C110.795 84.9118 112.506 85.5723 114.151 86.3723L119.264 85.0679C119.743 84.9476 120.253 85.0756 120.615 85.4148L129.325 93.5492C129.687 93.8871 129.851 94.3851 129.763 94.8715L128.813 100.055C129.726 101.638 130.496 103.299 131.133 105.038L136.543 108.25C136.968 108.502 137.237 108.954 137.253 109.449L137.662 121.361C137.678 121.856 137.443 122.325 137.036 122.607L131.856 126.184C131.339 127.984 130.679 129.707 129.89 131.321L131.188 136.419C131.309 136.898 131.179 137.406 130.842 137.768L122.709 146.478C122.371 146.841 121.873 147.005 121.385 146.916L116.223 145.972C114.599 146.897 112.918 147.677 111.213 148.295L108.007 153.695C107.755 154.121 107.303 154.389 106.807 154.406L94.897 154.814C94.8816 154.819 94.865 154.819 94.8483 154.819ZM85.0935 144.055C85.3187 144.055 85.5415 144.108 85.7463 144.21C87.5703 145.127 89.457 145.851 91.3565 146.361C91.6893 146.45 91.9786 146.654 92.1744 146.938L95.5933 151.889L105.917 151.536L108.986 146.366C109.17 146.055 109.462 145.828 109.796 145.722C111.645 145.086 113.469 144.237 115.218 143.203C115.519 143.025 115.875 142.962 116.219 143.024L121.128 143.922L128.178 136.373L126.942 131.52C126.855 131.177 126.896 130.814 127.057 130.499C127.943 128.771 128.662 126.893 129.197 124.914C129.287 124.583 129.492 124.294 129.774 124.098L134.734 120.672L134.381 110.348L129.204 107.275C128.909 107.099 128.685 106.825 128.574 106.502C127.907 104.583 127.066 102.77 126.073 101.117C125.873 100.807 125.799 100.432 125.865 100.07L126.769 95.1364L119.22 88.0862L114.353 89.3265C114.011 89.4123 113.65 89.3739 113.337 89.2139C111.554 88.3089 109.684 87.587 107.778 87.0673C107.447 86.9777 107.136 86.7678 106.942 86.4862L103.52 81.5313L93.1971 81.8846L90.1213 87.0635C89.9856 87.2913 89.7898 87.4782 89.5555 87.6023C89.4634 87.6523 89.3533 87.6958 89.2522 87.7239C87.4691 88.346 85.6528 89.1947 83.9338 90.2212C83.6317 90.403 83.2746 90.467 82.9277 90.403L77.9831 89.498L70.9328 97.0475L72.1731 101.917C72.2602 102.258 72.2205 102.619 72.0605 102.933C71.153 104.72 70.4311 106.592 69.9114 108.498C69.8218 108.829 69.6144 109.131 69.3328 109.325L64.3792 112.747L64.7325 123.071L69.9127 126.147C70.2071 126.322 70.4298 126.595 70.5424 126.919C71.2144 128.853 72.0631 130.677 73.064 132.338C73.2471 132.642 73.3123 133.001 73.2483 133.35L72.3459 138.284L79.8954 145.333L84.7363 144.099C84.8515 144.07 84.9731 144.055 85.0935 144.055ZM99.5395 138.49C94.0048 138.49 88.7581 136.423 84.6928 132.622C80.4445 128.651 77.9959 123.267 77.7962 117.462C77.5965 111.645 79.6714 106.1 83.6381 101.853C87.6048 97.6043 92.9936 95.1543 98.8112 94.9559C104.633 94.7537 110.173 96.8311 114.421 100.798C118.669 104.765 121.119 110.153 121.317 115.971C121.517 121.777 119.441 127.316 115.476 131.569C111.505 135.826 106.116 138.28 100.302 138.478C100.048 138.485 99.793 138.49 99.5395 138.49ZM99.5767 97.8462C99.3552 97.8462 99.1338 97.85 98.9124 97.8577C93.8704 98.0305 89.1997 100.153 85.7629 103.834C82.3248 107.515 80.5277 112.319 80.7005 117.361C80.8733 122.391 82.9956 127.058 86.6768 130.499C90.362 133.943 95.1632 135.752 100.204 135.573C105.242 135.4 109.911 133.274 113.352 129.585C116.79 125.9 118.589 121.1 118.416 116.068C118.243 111.026 116.121 106.356 112.439 102.919C108.921 99.6343 104.375 97.8462 99.5767 97.8462Z" fill="#EBEBEB"/>
<path d="M279.743 249.836C344.921 189.875 459.349 -29.2633 556.409 90.9569C637.631 191.56 536.13 337.423 469.983 399.214C383.938 479.593 236.679 500.375 138.857 423.935C96.7838 391.058 72.0887 334.392 127.401 306.46C146.056 297.039 182.015 301.242 203.762 293.655C231.596 283.946 257.931 269.903 279.743 249.836Z" fill="#407BFF"/>
<path opacity="0.9" d="M279.743 249.836C344.921 189.875 459.349 -29.2633 556.409 90.9569C637.631 191.56 536.13 337.423 469.983 399.214C383.938 479.593 236.679 500.375 138.857 423.935C96.7838 391.058 72.0887 334.392 127.401 306.46C146.056 297.039 182.015 301.242 203.762 293.655C231.596 283.946 257.931 269.903 279.743 249.836Z" fill="white"/>
<path d="M320 547.278C457.065 547.278 568.178 540.789 568.178 532.785C568.178 524.78 457.065 518.291 320 518.291C182.935 518.291 71.8223 524.78 71.8223 532.785C71.8223 540.789 182.935 547.278 320 547.278Z" fill="#F5F5F5"/>
<path d="M533.009 415.831H106.992C96.5228 415.831 88.0352 407.345 88.0352 396.875V124.505C88.0352 114.036 96.5216 105.548 106.992 105.548H533.008C543.477 105.548 551.965 114.036 551.965 124.505V396.876C551.965 407.345 543.478 415.831 533.009 415.831Z" fill="white"/>
<path d="M557.137 316.991H555.857V305.422H557.137V316.991ZM557.137 296.384H555.857V272.497H557.137V296.384Z" fill="#EBAF29"/>
<path d="M533.009 416.524H106.992C96.1578 416.524 87.3438 407.71 87.3438 396.876V124.504C87.3438 113.671 96.1578 104.856 106.992 104.856H533.008C543.842 104.856 552.656 113.671 552.656 124.504V396.876C552.657 407.71 543.842 416.524 533.009 416.524ZM106.992 106.239C96.9207 106.239 88.7274 114.432 88.7274 124.503V396.874C88.7274 406.945 96.9207 415.139 106.992 415.139H533.008C543.079 415.139 551.272 406.945 551.272 396.874V124.504C551.272 114.433 543.079 106.24 533.008 106.24L106.992 106.239Z" fill="#EBAF29"/>
<path opacity="0.5" d="M242.948 351.676H236.493V350.293H242.948L243.064 351.676H242.948ZM230.038 351.676H223.583V350.293H230.038V351.676ZM217.128 351.676H210.673V350.293H217.128V351.676ZM204.219 351.676H197.764V350.293H204.219V351.676ZM191.309 351.676H184.854V350.293H191.309V351.676ZM178.401 351.676H171.945V350.293H178.401V351.676ZM165.49 351.676H159.035V350.293H165.49V351.676ZM152.582 351.676H146.127V350.293H152.582V351.676ZM139.672 351.676H133.217V350.293H139.672V351.676ZM126.763 351.676H124.356C122.875 351.676 121.457 351.342 120.143 350.683L120.762 349.447C121.883 350.008 123.092 350.293 124.356 350.293H126.763V351.676ZM249.375 349.142L248.431 348.131C249.901 346.757 250.799 344.901 250.959 342.903L252.338 343.013C252.152 345.356 251.099 347.533 249.375 349.142ZM115.564 345.645C115.147 344.565 114.936 343.424 114.936 342.255V339.015H116.319V342.255C116.319 343.253 116.5 344.225 116.854 345.147L115.564 345.645ZM252.368 336.506H250.984V330.051H252.368V336.506ZM116.319 332.559H114.936V326.106H116.319V332.559ZM252.368 323.596H250.984V317.141H252.368V323.596ZM116.319 319.651H114.936V313.197H116.319V319.651ZM252.368 310.687H250.984V304.232H252.368V310.687ZM116.319 306.741H114.936V300.286H116.319V306.741ZM252.368 297.777H250.984V291.322H252.368V297.777ZM116.319 293.832H114.936V287.377H116.319V293.832ZM252.368 284.867H250.984V278.412H252.368V284.867ZM116.319 280.922H114.936V274.468H116.319V280.922ZM252.368 271.958H250.984V265.503H252.368V271.958ZM116.319 268.012H114.936V261.558H116.319V268.012ZM252.368 259.048H250.984V252.593H252.368V259.048ZM116.319 255.103H114.936V248.648H116.319V255.103ZM252.368 246.138H250.984V239.684H252.368V246.138ZM116.319 242.193H114.936V235.738H116.319V242.193ZM252.368 233.229H250.984V226.774H252.368V233.229ZM116.319 229.284H114.936V222.829H116.319V229.284ZM252.368 220.319H250.984V213.864H252.368V220.319ZM116.319 216.374H114.936V209.919H116.319V216.374ZM252.368 207.41H250.984V200.955H252.368V207.41ZM116.319 203.464H114.936V197.01H116.319V203.464ZM252.368 194.501H250.984V191.31C250.984 190.296 250.797 189.31 250.431 188.375L251.719 187.87C252.149 188.965 252.368 190.122 252.368 191.31V194.501ZM116.349 190.615L114.97 190.497C115.171 188.156 116.235 185.985 117.969 184.387L118.907 185.403C117.428 186.769 116.519 188.618 116.349 190.615ZM246.5 184.099C245.391 183.551 244.195 183.273 242.948 183.273H240.491V181.889H242.948C244.41 181.889 245.812 182.215 247.113 182.857L246.5 184.099ZM234.034 183.274H227.579V181.891H234.034V183.274ZM221.126 183.274H214.671V181.891H221.126V183.274ZM208.216 183.274H201.761V181.891H208.216V183.274ZM195.307 183.274H188.852V181.891H195.307V183.274ZM182.397 183.274H175.942V181.891H182.397V183.274ZM169.488 183.274H163.033V181.891H169.488V183.274ZM156.578 183.274H150.123V181.891H156.578V183.274ZM143.669 183.274H137.214V181.891H143.669V183.274ZM130.759 183.274H124.355L124.304 181.891H130.759V183.274Z" fill="#EBAF29"/>
<path d="M124.698 125.513C124.698 128.887 121.963 131.624 118.587 131.624C115.212 131.624 112.477 128.888 112.477 125.513C112.477 122.138 115.212 119.402 118.587 119.402C121.963 119.402 124.698 122.139 124.698 125.513Z" fill="#EBAF29"/>
<path opacity="0.2" d="M164.819 129.087H134.844C132.878 129.087 131.271 127.478 131.271 125.513C131.271 123.547 132.879 121.939 134.844 121.939H164.819C166.785 121.939 168.393 123.548 168.393 125.513C168.393 127.479 166.785 129.087 164.819 129.087Z" fill="#EBAF29"/>
<path opacity="0.2" d="M309.327 127.473H288.296C287.213 127.473 286.336 126.595 286.336 125.513C286.336 124.43 287.214 123.553 288.296 123.553H309.327C310.41 123.553 311.287 124.432 311.287 125.513C311.287 126.596 310.41 127.473 309.327 127.473Z" fill="#EBAF29"/>
<path opacity="0.2" d="M356.523 127.473H335.49C334.407 127.473 333.53 126.595 333.53 125.513C333.53 124.43 334.408 123.553 335.49 123.553H356.523C357.606 123.553 358.483 124.432 358.483 125.513C358.483 126.596 357.606 127.473 356.523 127.473Z" fill="#EBAF29"/>
<path opacity="0.2" d="M403.717 127.473H382.684C381.601 127.473 380.725 126.595 380.725 125.513C380.725 124.43 381.603 123.553 382.684 123.553H403.717C404.8 123.553 405.677 124.432 405.677 125.513C405.677 126.596 404.8 127.473 403.717 127.473Z" fill="#EBAF29"/>
<path opacity="0.2" d="M450.912 127.473H429.881C428.798 127.473 427.921 126.595 427.921 125.513C427.921 124.43 428.799 123.553 429.881 123.553H450.912C451.995 123.553 452.872 124.432 452.872 125.513C452.872 126.596 451.995 127.473 450.912 127.473Z" fill="#EBAF29"/>
<path opacity="0.7" d="M511.304 128.973H479.486C477.575 128.973 476.026 127.424 476.026 125.513C476.026 123.602 477.575 122.053 479.486 122.053H511.304C513.215 122.053 514.764 123.602 514.764 125.513C514.764 127.424 513.215 128.973 511.304 128.973Z" fill="#EBAF29"/>
<path opacity="0.7" d="M353.315 362.897H293.703C289.634 362.897 286.335 359.598 286.335 355.529V353.915C286.335 349.846 289.634 346.547 293.703 346.547H353.315C357.384 346.547 360.682 349.846 360.682 353.915V355.529C360.684 359.598 357.384 362.897 353.315 362.897Z" fill="#EBAF29"/>
<path opacity="0.2" d="M510.845 273.527V211.29C510.845 210.207 511.723 209.33 512.804 209.33C513.887 209.33 514.764 210.208 514.764 211.29V273.527C514.764 274.61 513.887 275.487 512.804 275.487C511.723 275.487 510.845 274.609 510.845 273.527Z" fill="#EBAF29"/>
<path opacity="0.2" d="M512.804 293.242C513.887 293.242 514.764 292.364 514.764 291.282C514.764 290.2 513.887 289.323 512.804 289.323C511.722 289.323 510.845 290.2 510.845 291.282C510.845 292.364 511.722 293.242 512.804 293.242Z" fill="#EBAF29"/>
<path opacity="0.2" d="M512.804 320.912C513.887 320.912 514.764 320.034 514.764 318.952C514.764 317.87 513.887 316.992 512.804 316.992C511.722 316.992 510.845 317.87 510.845 318.952C510.845 320.034 511.722 320.912 512.804 320.912Z" fill="#EBAF29"/>
<path opacity="0.2" d="M512.804 348.581C513.887 348.581 514.764 347.704 514.764 346.622C514.764 345.539 513.887 344.662 512.804 344.662C511.722 344.662 510.845 345.539 510.845 346.622C510.845 347.704 511.722 348.581 512.804 348.581Z" fill="#EBAF29"/>
<path opacity="0.2" d="M453.681 214.011H302.05C293.407 214.011 286.335 206.939 286.335 198.296C286.335 189.654 293.407 182.582 302.05 182.582H453.681C462.323 182.582 469.395 189.654 469.395 198.296C469.395 206.939 462.323 214.011 453.681 214.011Z" fill="#EBAF29"/>
<path opacity="0.2" d="M398.026 259.633H302.051C293.408 259.633 286.336 252.561 286.336 243.918C286.336 235.276 293.408 228.204 302.051 228.204H398.026C406.669 228.204 413.741 235.276 413.741 243.918C413.739 252.562 406.669 259.633 398.026 259.633Z" fill="#EBAF29"/>
<path d="M426.286 296.384H290.011C287.99 296.384 286.336 294.73 286.336 292.709C286.336 290.688 287.99 289.034 290.011 289.034H426.287C428.308 289.034 429.962 290.688 429.962 292.709C429.961 294.73 428.307 296.384 426.286 296.384Z" fill="#EBEBEB"/>
<path d="M458.307 296.384H444.366C442.345 296.384 440.691 294.73 440.691 292.709C440.691 290.688 442.345 289.034 444.366 289.034H458.307C460.328 289.034 461.982 290.688 461.982 292.709C461.982 294.73 460.328 296.384 458.307 296.384Z" fill="#EBEBEB"/>
<path d="M350.038 304.242H408.629C410.65 304.242 412.304 305.896 412.304 307.917C412.304 309.938 410.65 311.592 408.629 311.592H350.038C348.017 311.592 346.363 309.938 346.363 307.917C346.363 305.896 348.017 304.242 350.038 304.242Z" fill="#EBEBEB"/>
<path d="M290.011 304.242H331.958C333.979 304.242 335.633 305.896 335.633 307.917C335.633 309.938 333.979 311.592 331.958 311.592H290.011C287.99 311.592 286.336 309.938 286.336 307.917C286.335 305.896 287.988 304.242 290.011 304.242Z" fill="#EBEBEB"/>
<path d="M372.553 326.799H290.01C287.989 326.799 286.335 325.146 286.335 323.125C286.335 321.103 287.989 319.45 290.01 319.45H372.553C374.574 319.45 376.228 321.103 376.228 323.125C376.228 325.146 374.574 326.799 372.553 326.799Z" fill="#EBEBEB"/>
<path d="M432.58 326.799H390.633C388.612 326.799 386.958 325.146 386.958 323.125C386.958 321.103 388.612 319.45 390.633 319.45H432.58C434.601 319.45 436.255 321.103 436.255 323.125C436.256 325.146 434.602 326.799 432.58 326.799Z" fill="#EBEBEB"/>
<path d="M281.417 327.837L164.618 350.075C159.965 350.961 155.475 347.906 154.589 343.254L126.301 194.673C125.416 190.02 128.47 185.529 133.122 184.644L249.921 162.406C254.574 161.521 259.064 164.575 259.95 169.227L288.238 317.809C289.124 322.461 286.07 326.952 281.417 327.837Z" fill="#115E59"/>
<g opacity="0.2">
<path d="M160.149 344.929C160.046 344.929 159.944 344.905 159.848 344.854C159.536 344.687 159.419 344.298 159.586 343.987L253.828 167.89C253.995 167.577 254.384 167.461 254.695 167.627C255.007 167.794 255.123 168.183 254.957 168.494L160.715 344.591C160.598 344.806 160.377 344.929 160.149 344.929Z" fill="white"/>
<path d="M283.448 321.454C283.302 321.454 283.155 321.404 283.035 321.302L130.678 192.156C130.408 191.927 130.374 191.524 130.603 191.254C130.831 190.984 131.236 190.95 131.506 191.179L283.863 320.326C284.133 320.555 284.166 320.959 283.937 321.229C283.81 321.377 283.63 321.454 283.448 321.454Z" fill="white"/>
</g>
<path d="M268.5 338.006C268.5 338.006 285.201 396.033 291.978 424.527C299.093 454.452 320.261 499.689 322.021 519.525C323.851 520.253 329.78 519.434 332.944 517.905C332.944 517.905 330.042 454.66 312.844 425.851C316.728 354.963 297.488 338.006 297.488 338.006H268.5Z" fill="#115E59"/>
<path opacity="0.1" d="M290.136 367.153L280.744 381.579C283.721 392.461 286.767 403.802 289.256 413.559C291.869 396.668 290.136 367.153 290.136 367.153Z" fill="black"/>
<path d="M302.964 288.009C303.237 288.805 303.418 289.373 303.618 290.029C303.814 290.665 303.979 291.297 304.15 291.928C304.493 293.188 304.765 294.456 305.039 295.722C305.549 298.26 305.95 300.823 306.192 303.416C306.466 306.003 306.567 308.627 306.522 311.267C306.527 313.901 306.241 316.575 305.882 319.233L305.823 319.667C305.784 319.962 305.706 320.264 305.607 320.532C304.984 322.213 304.066 323.635 303.062 324.742C302.059 325.859 301.002 326.717 299.958 327.434C297.872 328.838 295.792 329.672 293.784 330.335C291.759 330.97 289.775 331.388 287.797 331.661C285.794 331.922 283.914 332.063 281.802 332.006C279.875 331.956 278.355 330.354 278.405 328.427C278.44 327.054 279.266 325.887 280.435 325.348L280.728 325.215C282.191 324.544 283.842 323.84 285.325 323.103C286.829 322.364 288.284 321.6 289.578 320.773C290.887 319.981 292.02 319.072 292.811 318.264C293.602 317.448 293.816 316.713 293.688 316.658L293.414 317.957C293.452 315.843 293.445 313.725 293.279 311.569C293.117 309.421 292.883 307.259 292.545 305.094C292.198 302.934 291.82 300.765 291.339 298.616C291.106 297.541 290.845 296.474 290.588 295.414L290.184 293.844L289.802 292.424L289.703 292.055C288.709 288.356 290.901 284.55 294.6 283.556C298.142 282.606 301.786 284.596 302.964 288.009Z" fill="#FF8B7B"/>
<path d="M286.178 325.432L277.819 323.049C276.622 322.707 275.342 322.804 274.21 323.323L271.087 324.752C269.554 325.454 268.897 327.278 269.631 328.796L271.092 331.821C271.698 333.071 273.08 333.746 274.438 333.45L280.045 332.233C280.045 332.233 286.341 332.645 288.564 328.906L286.178 325.432Z" fill="#FF8B7B"/>
<path d="M293.75 276.27C289.266 280.927 286.873 287.923 290.503 301.299C295.29 303.672 306.889 300.593 306.889 300.593C306.889 300.593 307.053 280.493 293.75 276.27Z" fill="#115E59"/>
<path opacity="0.7" d="M293.75 276.27C289.266 280.927 286.873 287.923 290.503 301.299C295.29 303.672 306.889 300.593 306.889 300.593C306.889 300.593 307.053 280.493 293.75 276.27Z" fill="white"/>
<path d="M301.87 285.603C301.637 285.61 301.456 285.806 301.464 286.038C301.472 286.264 301.659 286.443 301.884 286.443C301.889 286.443 301.894 286.443 301.899 286.442L303.992 286.367C303.872 286.089 303.746 285.814 303.616 285.54L301.87 285.603Z" fill="#263238"/>
<path d="M301.386 293.879C301.21 293.729 300.944 293.752 300.795 293.93C300.645 294.108 300.668 294.373 300.846 294.523L306.866 299.589C306.853 299.269 306.83 298.88 306.798 298.432L301.386 293.879Z" fill="#263238"/>
<path d="M289.223 295.365L295.995 291.109C296.192 290.985 296.251 290.726 296.128 290.529C296.004 290.332 295.744 290.274 295.548 290.396L289.08 294.461C289.118 294.754 289.176 295.065 289.223 295.365Z" fill="#115E59"/>
<path d="M282.274 256.24C281.435 262.121 280.828 272.781 284.994 276.123C284.994 276.123 279.505 275.977 268.932 284.463C265.033 280.119 267.309 278.3 267.309 278.3C273.581 275.99 273.189 271.259 271.868 266.932L282.274 256.24Z" fill="#FF8B7B"/>
<path d="M265.674 249.066C265.48 249.834 264.922 250.383 264.428 250.295C263.933 250.206 263.688 249.511 263.882 248.745C264.075 247.977 264.632 247.428 265.127 247.516C265.622 247.606 265.867 248.299 265.674 249.066Z" fill="#263238"/>
<path d="M265.336 247.598L263.65 246.74C263.65 246.74 264.221 248.348 265.336 247.598Z" fill="#263238"/>
<path d="M265.347 250.519C265.347 250.519 263.231 253.592 261.416 254.934C262.178 256.059 263.986 255.931 263.986 255.931L265.347 250.519Z" fill="#FF5652"/>
<path d="M265.021 242.726C264.972 242.623 264.962 242.505 265.003 242.394C265.087 242.166 265.355 242.056 265.601 242.148C268.058 243.076 268.613 245.093 268.634 245.18C268.697 245.422 268.545 245.656 268.293 245.704C268.042 245.751 267.787 245.594 267.722 245.352C267.701 245.272 267.248 243.712 265.294 242.975C265.168 242.927 265.072 242.835 265.021 242.726Z" fill="#263238"/>
<path d="M291.373 250.753C288.683 259.781 287.738 263.649 282.022 267.519C273.427 273.339 262.934 268.692 262.874 259.197C262.82 250.649 267.227 237.322 277.033 235.27C286.693 233.248 294.062 241.725 291.373 250.753Z" fill="#FF8B7B"/>
<path d="M270.475 251.316C265.127 247.516 267.732 240.532 272.64 240.32C266.24 235.84 269.578 227.734 277.402 228.054C285.227 228.374 286.336 233.174 286.336 233.174C286.336 233.174 298.951 233.814 300.723 242.987C302.808 253.78 296.213 260.694 288.107 263.894C293.619 268.416 280.613 271.589 274.144 267.947C267.512 264.214 265.218 256.127 270.475 251.316Z" fill="#263238"/>
<path d="M300.162 239.191C293.281 237.919 289.832 247.432 294.31 252.989C295.091 253.958 295.867 254.664 296.614 255.167C299.42 257.055 303.233 255.121 303.508 251.75C303.88 247.179 303.876 239.877 300.162 239.191Z" fill="white"/>
<path d="M318.84 244.056C319.347 243.675 319.683 243.197 319.749 242.593C320.042 239.905 318.005 238.162 315.554 237.778C314.083 233.097 307.874 233.011 304.38 236.363C301.521 234.904 298.338 238.116 298.727 241.469C295.713 242.822 294.933 247.819 297.674 250.712C298.25 251.32 298.808 251.752 299.338 252.05C299.472 252.125 299.612 252.16 299.75 252.212C299.992 254.141 301.556 256.114 303.797 256.554C304.46 256.685 305.029 256.708 305.516 256.655C306.43 256.558 307.115 255.973 307.438 255.227C309.441 256.872 311.576 257.942 313.099 256.879C314.698 255.766 315.338 254.169 315.28 252.52C316.335 252.936 317.331 252.982 318.147 252.412C321.085 250.368 320.837 246.707 318.84 244.056Z" fill="#263238"/>
<path d="M273.413 252.669C272.297 254.474 270.64 255.498 269.18 255.747C266.982 256.12 266.275 253.576 267.214 251.185C268.058 249.032 270.219 246.243 272.267 246.968C274.283 247.683 274.689 250.606 273.413 252.669Z" fill="#FF8B7B"/>
<path d="M270.476 245.974C272.356 242.382 282.666 232.561 289.528 232.924C291.305 233.404 292.755 234.097 293.578 234.539C293.805 234.661 293.738 234.995 293.484 235.026C290.792 235.341 282.056 237.357 273.866 250.24C272 249.014 270.476 245.974 270.476 245.974Z" fill="#115E59"/>
<path d="M274.589 253.282C272.936 256.961 269.615 259.053 267.174 257.956C264.732 256.858 264.093 252.987 265.747 249.308C267.401 245.629 270.721 243.538 273.162 244.635C275.603 245.732 276.242 249.604 274.589 253.282Z" fill="white"/>
<path d="M272.566 252.372C271.072 255.694 268.211 257.645 266.174 256.73C264.138 255.814 263.698 252.379 265.191 249.057C266.684 245.736 269.546 243.785 271.582 244.7C273.618 245.615 274.058 249.051 272.566 252.372Z" fill="#115E59"/>
<path d="M316.499 532.745C323.69 531.679 323.828 530.483 327.685 529.131C330.986 527.967 331.915 528.134 334.579 527.234C336.805 526.484 336.05 524.365 334.585 522.114C333.852 520.983 333.746 519.906 332.944 517.905L322.021 519.525C320.957 522.575 320.582 526.477 314.347 528.709C310.633 530.038 313.633 533.171 316.499 532.745Z" fill="#263238"/>
<path d="M249.891 532.773C257.036 532.76 258.411 532.303 262.426 532.166C265.868 532.041 266.434 532.773 269.923 532.773C272.235 532.773 272.554 530.17 271.708 528.218C271.049 526.697 270.949 524.878 270.469 522.904H260.615C258.837 526.027 253.993 528.339 248.576 528.726C244.706 529.012 247.031 532.773 249.891 532.773Z" fill="#263238"/>
<path d="M258.245 338.006C258.245 338.006 256.82 389.417 259.865 422.065C259.675 452.714 260.618 522.904 260.618 522.904C260.856 524.47 269.078 523.845 270.472 522.904C270.472 522.904 285.866 471.78 279.032 422.065C296.141 370.214 292.45 338.006 292.45 338.006H258.245Z" fill="#115E59"/>
<path d="M320.587 515.552C320.702 516.548 320.868 518.29 320.807 519.647C320.785 520.135 321.17 520.53 321.661 520.535C325.754 520.582 331.403 518.797 333.189 518.194C333.531 518.079 333.758 517.76 333.76 517.399L333.795 513.532C333.8 513.003 333.326 512.599 332.804 512.686L321.289 514.621C320.845 514.697 320.535 515.101 320.587 515.552Z" fill="#115E59"/>
<path opacity="0.5" d="M320.587 515.552C320.702 516.548 320.868 518.29 320.807 519.647C320.785 520.135 321.17 520.53 321.661 520.535C325.754 520.582 331.403 518.797 333.189 518.194C333.531 518.079 333.758 517.76 333.76 517.399L333.795 513.532C333.8 513.003 333.326 512.599 332.804 512.686L321.289 514.621C320.845 514.697 320.535 515.101 320.587 515.552Z" fill="white"/>
<path d="M259.488 518.584C259.459 519.649 259.396 521.546 259.299 522.948C259.267 523.411 259.611 523.821 260.077 523.885C263.564 524.365 269.124 523.929 270.948 523.764C271.309 523.731 271.596 523.47 271.664 523.115L272.397 519.298C272.497 518.777 272.091 518.273 271.555 518.251L260.333 517.805C259.874 517.787 259.501 518.127 259.488 518.584Z" fill="#115E59"/>
<path opacity="0.5" d="M259.488 518.584C259.459 519.649 259.396 521.546 259.299 522.948C259.267 523.411 259.611 523.821 260.077 523.885C263.564 524.365 269.124 523.929 270.948 523.764C271.309 523.731 271.596 523.47 271.664 523.115L272.397 519.298C272.497 518.777 272.091 518.273 271.555 518.251L260.333 517.805C259.874 517.787 259.501 518.127 259.488 518.584Z" fill="white"/>
<path d="M251.732 294.921C252.085 298.765 252.525 303.631 254.181 312.708C255.435 320.408 256.358 327.919 258.181 340.619C275.82 342.471 296.577 340.978 297.487 338.006C296.095 327.01 296.136 312.173 300.093 286.625C301.009 280.701 296.717 275.649 290.87 275.775C289.308 275.808 287.655 275.878 285.965 276.005C279.395 276.493 274.015 276.943 268.278 278.182C266.378 278.593 264.415 279.079 262.543 279.579C255.787 281.378 251.1 288.032 251.732 294.921Z" fill="#115E59"/>
<path opacity="0.8" d="M251.732 294.921C252.085 298.765 252.525 303.631 254.181 312.708C255.435 320.408 256.358 327.919 258.181 340.619C275.82 342.471 296.577 340.978 297.487 338.006C296.095 327.01 296.136 312.173 300.093 286.625C301.009 280.701 296.717 275.649 290.87 275.775C289.308 275.808 287.655 275.878 285.965 276.005C279.395 276.493 274.015 276.943 268.278 278.182C266.378 278.593 264.415 279.079 262.543 279.579C255.787 281.378 251.1 288.032 251.732 294.921Z" fill="white"/>
<path d="M254.893 284.658L256.943 287.232C257.026 287.335 257.149 287.39 257.272 287.39C257.364 287.39 257.456 287.361 257.533 287.298C257.715 287.154 257.746 286.89 257.601 286.708L255.446 284.001C255.255 284.216 255.07 284.434 254.893 284.658Z" fill="#263238"/>
<path d="M264.279 283.146C264.288 283.146 264.297 283.147 264.306 283.147C264.526 283.147 264.711 282.976 264.725 282.753L264.963 278.959C264.675 279.031 264.394 279.105 264.107 279.178L263.886 282.701C263.87 282.931 264.047 283.131 264.279 283.146Z" fill="#115E59"/>
<path d="M282.681 286.538C282.753 286.585 282.833 286.609 282.913 286.609C283.048 286.609 283.183 286.542 283.263 286.42C283.391 286.227 283.338 285.966 283.144 285.838L272.381 278.729C272.188 278.601 271.928 278.653 271.798 278.848C271.67 279.041 271.723 279.302 271.917 279.43L282.681 286.538Z" fill="#115E59"/>
<path d="M264.318 288.921C264.234 289.138 264.34 289.381 264.556 289.465L276.569 294.167C276.62 294.187 276.671 294.196 276.723 294.196C276.89 294.196 277.049 294.095 277.114 293.929C277.199 293.712 277.091 293.469 276.876 293.385L264.863 288.683C264.647 288.596 264.403 288.704 264.318 288.921Z" fill="#263238"/>
<path d="M257.379 310.304C257.45 310.35 257.529 310.372 257.607 310.372C257.744 310.372 257.88 310.304 257.96 310.18L264.959 299.345C265.085 299.15 265.03 298.889 264.834 298.763C264.639 298.638 264.379 298.694 264.253 298.889L257.254 309.724C257.128 309.919 257.183 310.178 257.379 310.304Z" fill="#115E59"/>
<path d="M253.954 300.841C254.036 300.917 254.138 300.955 254.242 300.955C254.354 300.955 254.466 300.91 254.549 300.821C254.708 300.652 254.699 300.386 254.53 300.228L252.015 297.872C252.056 298.282 252.1 298.708 252.149 299.151L253.954 300.841Z" fill="#115E59"/>
<path d="M291.923 308.011C291.705 308.092 291.593 308.333 291.672 308.55C291.735 308.72 291.896 308.827 292.067 308.827C292.116 308.827 292.165 308.819 292.212 308.801L297.533 306.855C297.561 306.551 297.593 306.236 297.623 305.927L291.923 308.011Z" fill="#115E59"/>
<path d="M289.647 299.338C289.724 299.338 289.801 299.316 289.87 299.274L299.097 293.474C299.147 293.112 299.196 292.754 299.247 292.386L289.423 298.561C289.227 298.685 289.167 298.944 289.291 299.141C289.369 299.269 289.506 299.338 289.647 299.338Z" fill="#115E59"/>
<path d="M283.347 300.957C283.223 300.761 282.963 300.703 282.768 300.824L271.847 307.689C271.65 307.813 271.591 308.072 271.714 308.269C271.794 308.395 271.93 308.466 272.069 308.466C272.146 308.466 272.224 308.444 272.293 308.402L283.214 301.537C283.411 301.413 283.47 301.153 283.347 300.957Z" fill="#115E59"/>
<path d="M292.556 286.422C292.604 286.422 292.656 286.413 292.704 286.395C292.922 286.313 293.031 286.071 292.949 285.853L289.169 275.831C288.873 275.842 288.583 275.851 288.283 275.865L292.162 286.15C292.226 286.318 292.386 286.422 292.556 286.422Z" fill="#263238"/>
<path d="M281.717 338.867C281.523 338.738 281.262 338.791 281.134 338.986C281.006 339.179 281.059 339.442 281.253 339.568L283.648 341.149C284.115 341.118 284.575 341.086 285.027 341.052L281.717 338.867Z" fill="#115E59"/>
<path d="M297.15 334.886L287.829 331.238C287.613 331.153 287.369 331.26 287.285 331.476C287.2 331.693 287.307 331.936 287.523 332.02L297.238 335.822C297.205 335.517 297.179 335.197 297.15 334.886Z" fill="#115E59"/>
<path d="M257.761 337.666C257.797 337.925 257.832 338.177 257.87 338.439C258.023 338.373 258.142 338.245 258.137 338.067C258.129 337.856 257.959 337.665 257.761 337.666Z" fill="#263238"/>
<path d="M257.646 324.784C257.766 324.784 257.885 324.733 257.967 324.635C258.117 324.457 258.094 324.192 257.916 324.042L255.589 322.085C255.646 322.497 255.705 322.911 255.764 323.332L257.374 324.686C257.454 324.752 257.55 324.784 257.646 324.784Z" fill="#115E59"/>
<path d="M277.312 320.576C277.479 320.576 277.638 320.475 277.703 320.308C277.788 320.092 277.682 319.849 277.465 319.764L265.455 315.059C265.24 314.975 264.996 315.081 264.91 315.297C264.825 315.513 264.932 315.757 265.148 315.841L277.158 320.546C277.209 320.567 277.261 320.576 277.312 320.576Z" fill="#263238"/>
<path d="M274.529 326.131L263.607 332.996C263.411 333.12 263.351 333.378 263.475 333.575C263.554 333.702 263.691 333.773 263.831 333.773C263.908 333.773 263.984 333.751 264.053 333.709L274.976 326.844C275.172 326.72 275.232 326.461 275.108 326.264C274.985 326.067 274.724 326.009 274.529 326.131Z" fill="#115E59"/>
<path d="M284.612 322.868C284.691 322.995 284.828 323.065 284.968 323.065C285.045 323.065 285.121 323.044 285.191 323.001L296.113 316.137C296.309 316.013 296.369 315.754 296.245 315.557C296.122 315.36 295.861 315.301 295.665 315.424L284.743 322.288C284.547 322.413 284.488 322.671 284.612 322.868Z" fill="#263238"/>
<path d="M272.236 339.256C272.154 339.039 271.912 338.93 271.694 339.012C271.478 339.094 271.368 339.335 271.45 339.553L272.153 341.417C272.453 341.421 272.756 341.424 273.055 341.427L272.236 339.256Z" fill="#263238"/>
<path d="M263.347 295.174C263.249 296.01 263.169 296.6 263.066 297.279C262.968 297.937 262.839 298.578 262.718 299.22C262.47 300.502 262.188 301.766 261.891 303.028C261.267 305.542 260.518 308.026 259.621 310.47C258.753 312.923 257.713 315.334 256.536 317.697C255.406 320.077 253.994 322.367 252.526 324.611L252.261 325.016C252.106 325.253 251.914 325.478 251.718 325.665C249.372 327.886 247.248 329.366 245.057 330.907C242.886 332.421 240.677 333.807 238.474 335.169C236.253 336.507 234.023 337.807 231.76 339.045C229.473 340.255 227.221 341.475 224.852 342.582C223.111 343.396 221.04 342.644 220.226 340.904C219.575 339.511 219.925 337.908 220.981 336.905L221.012 336.878C222.848 335.14 224.769 333.468 226.635 331.761L232.29 326.753C234.181 325.112 236.017 323.433 237.831 321.802C238.736 320.982 239.607 320.161 240.44 319.342L241.628 318.143C242.01 317.752 242.293 317.4 242.634 317.034L241.826 318.088C242.772 316.196 243.677 314.282 244.457 312.265C245.235 310.257 245.955 308.205 246.584 306.106C247.205 304.008 247.791 301.885 248.291 299.741C248.546 298.671 248.789 297.599 249.001 296.53L249.569 293.491L249.642 293.102C250.346 289.338 253.969 286.856 257.734 287.561C261.332 288.23 263.754 291.593 263.347 295.174Z" fill="#FF8B7B"/>
<path d="M224.354 336.603L217.175 334.478C215.98 334.125 214.7 334.209 213.564 334.716L210.426 336.114C208.887 336.8 208.212 338.618 208.93 340.142L210.362 343.182C210.955 344.439 212.331 345.126 213.692 344.845L219.31 343.684C219.31 343.684 222.097 343.894 224.629 342.939C226.634 342.182 227.38 339.725 226.184 337.947C225.748 337.299 225.102 336.824 224.354 336.603Z" fill="#FF8B7B"/>
<path d="M260.091 280.61C254.039 282.881 248.864 288.162 246.376 301.797C249.673 306 261.468 308.22 261.468 308.22C261.468 308.22 270.276 290.153 260.091 280.61Z" fill="#115E59"/>
<path opacity="0.8" d="M260.091 280.61C254.039 282.881 248.864 288.162 246.376 301.797C249.673 306 261.468 308.22 261.468 308.22C261.468 308.22 270.276 290.153 260.091 280.61Z" fill="white"/>
<path d="M256.942 287.232C257.025 287.336 257.148 287.391 257.271 287.391C257.363 287.391 257.456 287.361 257.532 287.298C257.714 287.154 257.745 286.89 257.6 286.708L255.059 283.517C254.846 283.695 254.636 283.881 254.426 284.073L256.942 287.232Z" fill="#263238"/>
<path d="M264.318 288.921C264.234 289.138 264.34 289.381 264.556 289.465L264.698 289.522C264.651 289.243 264.601 288.965 264.541 288.688C264.444 288.731 264.36 288.813 264.318 288.921Z" fill="#263238"/>
<path d="M259.503 307.79L264.03 300.782C264.189 300.127 264.336 299.446 264.465 298.742C264.385 298.772 264.303 298.811 264.253 298.889L258.639 307.58C258.948 307.657 259.234 307.726 259.503 307.79Z" fill="#115E59"/>
<path d="M253.954 300.841C254.036 300.918 254.138 300.955 254.242 300.955C254.354 300.955 254.466 300.91 254.549 300.822C254.708 300.653 254.699 300.386 254.53 300.228L248.263 294.36C248.164 294.651 248.066 294.937 247.97 295.238L253.954 300.841Z" fill="#115E59"/>
<path d="M427.536 419.613C425.75 412.678 427.903 410.036 430.43 407.269C432.957 404.502 432.661 399.878 432.661 399.878C432.661 399.878 436.588 407.687 435.436 416.923C434.285 426.158 428.84 424.677 427.536 419.613Z" fill="#263238"/>
<path d="M438.51 475.551C435.86 471.109 424.581 461.739 416.017 465.419C422.865 468.265 430.418 485.576 440.552 484.85C438.808 476.907 438.51 475.551 438.51 475.551Z" fill="#263238"/>
<path d="M446.484 514.001C445.942 514.001 445.45 513.631 445.315 513.082C443.665 506.305 429.032 445.628 423.302 402.555C423.213 401.896 423.677 401.29 424.336 401.203C424.999 401.107 425.601 401.578 425.688 402.237C431.403 445.186 446.008 505.748 447.655 512.512C447.813 513.158 447.416 513.81 446.771 513.967C446.673 513.989 446.577 514.001 446.484 514.001Z" fill="#EBAF29"/>
<path d="M426.27 405.171C426.426 400.089 424.053 396.961 418.098 396.415C412.144 395.868 410.261 393.386 409.148 391.069C411.157 402.769 425.184 405.695 426.55 411.47C426.27 407.144 426.27 405.171 426.27 405.171Z" fill="#EBAF29"/>
<path d="M428.94 424.475C428.45 419.147 424.15 418.415 419.253 417.773C414.355 417.13 412.73 413.989 412.73 413.989C412.73 413.989 410.503 420.865 416.278 426.344C422.053 431.822 429.298 428.365 428.94 424.475Z" fill="#EBAF29"/>
<path d="M437.087 471.485C436.243 465.536 440.323 463.073 439.691 454.34C451.381 474.322 438.413 480.822 437.087 471.485Z" fill="#EBAF29"/>
<path d="M431.616 447.214C428.318 442.191 423.628 443.041 418.33 436.069C422.765 458.789 436.793 455.095 431.616 447.214Z" fill="#EBAF29"/>
<path d="M456.257 448.404C456.548 440.371 449.1 436.133 443.398 428.105C446.865 444.083 455.802 461.01 456.257 448.404Z" fill="#263238"/>
<path d="M452.593 506.767C452.556 506.767 452.519 506.766 452.48 506.763C451.702 506.702 451.12 506.021 451.181 505.241C452.514 488.365 457.223 415.621 455.904 368.057C455.883 367.277 456.498 366.626 457.279 366.605C458.107 366.596 458.71 367.199 458.732 367.979C460.053 415.668 455.336 488.555 454.001 505.464C453.943 506.204 453.324 506.767 452.593 506.767Z" fill="#EBAF29"/>
<path d="M456.242 371.872C454.454 362.14 458.106 355.426 469.404 352.632C480.703 349.837 483.598 344.512 485.06 339.729C484.618 362.826 458.482 372.561 457.544 384.074C456.819 375.666 456.242 371.872 456.242 371.872Z" fill="#EBAF29"/>
<path d="M457.11 391.547C458.918 379.882 450.111 376.01 439.976 372.009C429.841 368.008 428.047 360.412 428.047 360.412C428.047 360.412 419.592 373.933 429.012 388.754C438.433 403.575 455.789 400.063 457.11 391.547Z" fill="#EBAF29"/>
<path d="M457.057 421.35C459.001 412.095 466.699 411.684 475.429 411.552C484.158 411.42 487.652 406.233 487.652 406.233C487.652 406.233 490.164 418.761 478.91 427.205C467.654 435.65 455.638 428.107 457.057 421.35Z" fill="#EBAF29"/>
<path d="M455.43 466.313C457.547 460.618 468.59 447.398 479.266 449.832C471.959 454.573 466.908 476.176 455.045 477.49C455.374 467.944 455.43 466.313 455.43 466.313Z" fill="#EBAF29"/>
<path d="M465.639 494.274H430.018C428.043 494.274 426.623 496.175 427.184 498.068L436.825 530.655C437.196 531.91 438.349 532.772 439.659 532.772H455.998C457.307 532.772 458.461 531.91 458.832 530.655L468.473 498.068C469.032 496.175 467.614 494.274 465.639 494.274Z" fill="#EBAF29"/>
<path opacity="0.2" d="M465.639 494.274H430.018C428.043 494.274 426.623 496.175 427.184 498.068L436.825 530.655C437.196 531.91 438.349 532.772 439.659 532.772H455.998C457.307 532.772 458.461 531.91 458.832 530.655L468.473 498.068C469.032 496.175 467.614 494.274 465.639 494.274Z" fill="#EBAF29"/>
<path opacity="0.7" d="M465.639 494.274H430.018C428.043 494.274 426.623 496.175 427.184 498.068L436.825 530.655C437.196 531.91 438.349 532.772 439.659 532.772H455.998C457.307 532.772 458.461 531.91 458.832 530.655L468.473 498.068C469.032 496.175 467.614 494.274 465.639 494.274Z" fill="white"/>
</svg>
